<?xml version="1.0" encoding="UTF-8"?>
<svg id="Layer_1" xmlns="http://www.w3.org/2000/svg" version="1.1" viewBox="0 0 247.3 175.3">
  <!-- Generator: Adobe Illustrator 29.4.0, SVG Export Plug-In . SVG Version: 2.1.0 Build 152)  -->
  <defs>
    <style>
      .st0 {
        fill: #df7536;
      }

      .st1, .st2, .st3 {
        isolation: isolate;
      }

      .st2, .st3 {
        font-family: ArialRoundedMTBold, 'Arial Rounded MT Bold';
        font-size: 12px;
      }

      .st2, .st4 {
        fill: #ff7512;
      }

      .st5 {
        fill: #4f7f00;
      }
    </style>
  </defs>
  <path class="st4" d="M131.7,73.1c5.4,2.7,7.5,9.8,3.6,15.1-.5.6-2.2,2.4-2.9,2.5-.4,0-1.9-1.1-2.6-1.4h-.2c0,0-.2.4-.3.5h-.3l-1.9-3.4c0,0,0-.3.2-.3h3.8c.1,0,.2,0,.3.2h0l-.2.5s0,.2.1.2h.2c.1,0,.2,0,.2,0v-.8l-.8-5.8s0,0-.1,0h-.4c0,0-.1-.2-.1-.3-.5-3.1-4.5-3.6-5.8-.7,0,.2,0,.7-.2.8,0,0-.5,0-.6.3-.5,3.3-.9,6.6-1.4,9.9,0,0,0,.4-.2.3-.9-.2-2.7-2.2-3.2-3.1-3.7-5.6-1-12.8,4.9-15,.4,0,.8,0,1.3,0s1.1,0,1.8-.5h2.1s.3,0,.6.3c.6.3,1,.6,2,.5h0v.3Z"/>
  <path class="st5" d="M134.8,67.2c.3-.2,1.1,4.2-.7,5-1.1.5-1.8.8-2.4.8-.6-.3-1.3-.5-2-.7h-2.7c0-.2,0-.3-.2-.5h0l5.2-3h0l2.7-1.6h0Z"/>
  <path class="st5" d="M132.3,66.5c.1,0,.2,0,.2.2,0,.7-.2,1.3-.5,2h0l-5.2,2.9c-.8-2.1-2.2-3.1-3.6-3.6-.3,0-.6-.2-.9-.2h0c0-.3-.2-.7-.2-1s0-.2.2-.2c2,.3,4,1.5,4.9,3.4,0,0,.3,0,.3,0,.9-1.9,2.9-2.9,4.9-3.4h-.1Z"/>
  <path class="st0" d="M131.7,73.1c-1,.2-1.4-.2-2-.5-.3-.2-.6-.3-.6-.3h.6c.7.2,1.3.4,2,.7h0Z"/>
  <path class="st0" d="M129.7,80.1c0,0,0,.2-.2.2h-4.4c0,0-.2,0-.2-.2.5-2.8,4.5-2.8,4.8,0h0Z"/>
  <path class="st0" d="M128.5,84.4c.1,0-.5,1.6-.7,1.4s.4-1.7.7-1.4Z"/>
  <path class="st0" d="M127.2,84.5c0,.3.2.7,0,.9,0,.2-.3.2-.3,0,0-.3,0-.6,0-.9,0-.2.3-.2.3,0h0Z"/>
  <path class="st0" d="M127.1,86.9c0,0-.4.8-.6,1.1h-.3v-.2c.2-.3.7-1.1.9-.9Z"/>
  <path class="st0" d="M126.9,72.2h0c-.7.4-1.2.4-1.8.5-.5,0-.9,0-1.3,0h0c.5,0,1.2,0,1.8-.4h1.3Z"/>
  <path class="st5" d="M126.9,72.2h-.4c-.2,0-.2-.2,0-.3l.3-.2c0,.2,0,.3.2.5h0Z"/>
  <path class="st5" d="M126.8,71.7h0l-.3.2-.6.3h0c-.7-2.5-2-3.7-3.5-4.3h0c.3,0,.6,0,.9.2,1.3.5,2.7,1.5,3.6,3.6h0Z"/>
  <path class="st0" d="M126.5,86.3c.4.4-1.4,1.1-1.4.6s1.3-.7,1.4-.6Z"/>
  <path class="st0" d="M125.7,85c.2,0,1.1.6.8.8,0,0-.9-.4-1-.4-.4-.3-.3-.6.2-.4h0Z"/>
  <path class="st5" d="M126.5,72.2h-.7l.6-.3c-.2,0,0,.3,0,.3h0Z"/>
  <path class="st5" d="M125.8,72.2h0c-.7.3-1.2.4-1.8.4h0c-2.6-.6-4-3.7-4.3-4.5,0,0,0-.2,0-.2.4,0,1.5-.2,2.6,0h0c1.4.6,2.8,1.8,3.5,4.3h0Z"/>
  <g class="st1">
    <g class="st1">
      <text class="st2" transform="translate(105.4 101.6)"><tspan x="0" y="0">S</tspan></text>
    </g>
    <g class="st1">
      <text class="st3" transform="translate(113.4 101.6)"><tspan x="0" y="0">hopify</tspan></text>
    </g>
  </g>
</svg>